<?xml version="1.0" encoding="utf-8"?>
<!-- Generator: Adobe Illustrator 18.0.0, SVG Export Plug-In . SVG Version: 6.00 Build 0)  -->
<!DOCTYPE svg PUBLIC "-//W3C//DTD SVG 1.1//EN" "http://www.w3.org/Graphics/SVG/1.1/DTD/svg11.dtd">
<svg version="1.1" id="Layer_1" xmlns="http://www.w3.org/2000/svg" xmlns:xlink="http://www.w3.org/1999/xlink" x="0px" y="0px"
	 viewBox="0 0 1728 1728" enable-background="new 0 0 1728 1728" xml:space="preserve">
<g id="bkg" display="none">
	<rect y="4.3" display="inline" width="1728" height="1723.7"/>
</g>
<g id="Layer_1_1_" display="none">
	<g display="inline">
		<g>
			<path fill="#FFFFFF" d="M0,1304.6V1728h423.4L1460.2,691.2l-423.4-427.7L0,1304.6z M108,1620v-267.8L371.5,1620H108z
				 M1594.1,129.6C1442.9-21.6,1300.3,0,1300.3,0l-129.6,133.9l423.4,423.4L1728,423.4C1728,423.4,1745.3,280.8,1594.1,129.6z"/>
		</g>
	</g>
</g>
<g id="Layer_2" display="none">
	<g display="inline">
		<g>
			<path fill="#FFFFFF" d="M1624.3,596.2L1080,30.2c-38.9-38.9-99.4-38.9-133.9,0l-920.2,959c-38.9,38.9-38.9,103.7,0,142.6
				l544.3,565.9c38.9,38.9,99.4,38.9,133.9,0l915.8-959C1663.2,699.8,1663.2,635,1624.3,596.2z M743,1589.8L129.6,950.4l69.1-69.1
				l613.4,639.4L743,1589.8z M1697.8,1684.8c-38.9-13-64.8-51.8-108-34.6c-38.9,13-34.6,77.8-34.6,77.8H1728
				C1728,1728,1728,1697.8,1697.8,1684.8z M1291.7,1633c-38.9,0-38.9-77.8-99.4-47.5c-56.2,30.2-60.5,142.6-60.5,142.6h224.6
				C1360.8,1728,1343.5,1633,1291.7,1633z M928.8,1693.4c17.3-4.3-21.6,34.6-21.6,34.6h90.7c0,0,4.3-34.6-13-47.5
				C972,1667.5,911.5,1693.4,928.8,1693.4z"/>
		</g>
	</g>
</g>
<g id="Layer_4">
	<path fill="#4C4E54" d="M864,1728C388.8,1728,0,1339.2,0,864S388.8,0,864,0s864,388.8,864,864S1339.2,1728,864,1728z M1339.2,561.6
		l-185.8-185.8L859.7,669.6L561.6,375.8L375.8,561.6l298.1,298.1l-293.8,293.8l181.4,185.8l293.8-293.8l298.1,298.1l185.8-185.8
		l-298.1-298.1L1339.2,561.6z"/>
</g>
</svg>
