<?xml version="1.0" encoding="utf-8"?>
<!-- Generator: Adobe Illustrator 18.0.0, SVG Export Plug-In . SVG Version: 6.00 Build 0)  -->
<!DOCTYPE svg PUBLIC "-//W3C//DTD SVG 1.1//EN" "http://www.w3.org/Graphics/SVG/1.1/DTD/svg11.dtd">
<svg version="1.1" xmlns="http://www.w3.org/2000/svg" xmlns:xlink="http://www.w3.org/1999/xlink" x="0px" y="0px"
	 viewBox="0 0 40 40" enable-background="new 0 0 40 40" xml:space="preserve">
<g id="bkg" display="none">
	<rect x="0" y="0.1" display="inline" fill-rule="evenodd" clip-rule="evenodd" width="40" height="39.9"/>
</g>
<g id="draw" display="none">
	<g display="inline">
		<g>
			<path fill="#656970" d="M0,30.2l0,9.8L9.8,40l24-24L24,6.1L0,30.2z M2.5,37.5l0-6.2l6.1,6.2L2.5,37.5z M36.9,3
				c-3.5-3.5-6.8-3-6.8-3l-3,3.1l9.8,9.8L40,9.8C40,9.8,40.4,6.5,36.9,3z"/>
		</g>
	</g>
</g>
<g id="drawActive" display="none">
	<g display="inline">
		<g>
			<path fill="#FFFFFF" d="M0,30.2l0,9.8L9.8,40l24-24L24,6.1L0,30.2z M2.5,37.5l0-6.2l6.1,6.2L2.5,37.5z M36.9,3
				c-3.5-3.5-6.8-3-6.8-3l-3,3.1l9.8,9.8L40,9.8C40,9.8,40.4,6.5,36.9,3z"/>
		</g>
	</g>
</g>
<g id="erase" display="none">
	<g display="inline">
		<g>
			<path fill-rule="evenodd" clip-rule="evenodd" fill="#656970" d="M37.6,13.8L25,0.7c-0.9-0.9-2.3-0.9-3.1,0L0.6,22.9
				c-0.9,0.9-0.9,2.4,0,3.3l12.6,13.1c0.9,0.9,2.3,0.9,3.1,0l21.2-22.2C38.5,16.2,38.5,14.7,37.6,13.8z M17.2,36.8L3,22l1.6-1.6
				l14.2,14.8L17.2,36.8z M29.9,37.8c-0.9,0-0.9-1.8-2.3-1.1c-1.3,0.7-1.4,3.3-1.4,3.3h5.2C31.5,40,31.1,37.8,29.9,37.8z M39.3,39
				c-0.9-0.3-1.5-1.2-2.5-0.8C35.9,38.5,36,40,36,40H40C40,40,40,39.3,39.3,39z M21.5,39.2c0.4-0.1-0.5,0.8-0.5,0.8h2.1
				c0,0,0.1-0.8-0.3-1.1C22.5,38.6,21.1,39.2,21.5,39.2z"/>
		</g>
	</g>
</g>
<g id="eraseActive" display="none">
	<g display="inline">
		<g>
			<path fill-rule="evenodd" clip-rule="evenodd" fill="#FFFFFF" d="M37.6,13.8L25,0.7c-0.9-0.9-2.3-0.9-3.1,0L0.6,22.9
				c-0.9,0.9-0.9,2.4,0,3.3l12.6,13.1c0.9,0.9,2.3,0.9,3.1,0l21.2-22.2C38.5,16.2,38.5,14.7,37.6,13.8z M17.2,36.8L3,22l1.6-1.6
				l14.2,14.8L17.2,36.8z M39.3,39c-0.9-0.3-1.5-1.2-2.5-0.8C35.9,38.5,36,40,36,40H40C40,40,40,39.3,39.3,39z M29.9,37.8
				c-0.9,0-0.9-1.8-2.3-1.1c-1.3,0.7-1.4,3.3-1.4,3.3h5.2C31.5,40,31.1,37.8,29.9,37.8z M21.5,39.2c0.4-0.1-0.5,0.8-0.5,0.8h2.1
				c0,0,0.1-0.8-0.3-1.1C22.5,38.6,21.1,39.2,21.5,39.2z"/>
		</g>
	</g>
</g>
<g id="clear" display="none">
	<path display="inline" fill-rule="evenodd" clip-rule="evenodd" fill="#656970" d="M20,40C9,40,0,31,0,20C0,9,9,0,20,0
		c11,0,20,9,20,20C40,31,31,40,20,40z M31,13l-4.3-4.3l-6.8,6.8L13,8.7L8.7,13l6.9,6.9l-6.8,6.8L13,31l6.8-6.8l6.9,6.9l4.3-4.3
		l-6.9-6.9L31,13z"/>
</g>
<g id="clearActive" display="none">
	<path display="inline" fill-rule="evenodd" clip-rule="evenodd" fill="#FFFFFF" d="M20,40C9,40,0,31,0,20C0,9,9,0,20,0
		c11,0,20,9,20,20C40,31,31,40,20,40z M31,13l-4.3-4.3l-6.8,6.8L13,8.7L8.7,13l6.9,6.9l-6.8,6.8L13,31l6.8-6.8l6.9,6.9l4.3-4.3
		l-6.9-6.9L31,13z"/>
</g>
<g id="square" display="none">
	<rect display="inline" fill-rule="evenodd" clip-rule="evenodd" fill="#656970" width="40" height="40"/>
</g>
<g id="squareActive" display="none">
	<rect display="inline" fill-rule="evenodd" clip-rule="evenodd" fill="#FFFFFF" width="40" height="40"/>
</g>
<g id="circle" display="none">
	<path display="inline" fill-rule="evenodd" clip-rule="evenodd" fill="#656970" d="M20,40C9,40,0,31,0,20C0,9,9,0,20,0
		c11,0,20,9,20,20C40,31,31,40,20,40z"/>
</g>
<g id="circleActive" display="none">
	<path display="inline" fill-rule="evenodd" clip-rule="evenodd" fill="#FFFFFF" d="M20,40C9,40,0,31,0,20C0,9,9,0,20,0
		c11,0,20,9,20,20C40,31,31,40,20,40z"/>
</g>
<g id="show" display="none">
	<g display="inline">
		<g>
			<path fill-rule="evenodd" clip-rule="evenodd" fill="#FFFFFF" d="M15,36.6c0,0.6,0.5,1,1,1h8c0.6,0,1-0.5,1-1v-5.5H15V36.6z
				 M20,0.1c-6.6,0-11.9,4.8-11.9,11.5c0,2.5,2.1,5.7,2.9,7.6c1.1,2.6,2.9,6.9,3.1,8.3c0.4,2.6,1.9,2.9,2.6,2.9h6.6
				c0.5,0,2.2-0.3,2.6-2.9c0.2-1.4,1.9-5.8,3.1-8.3c1-2,3-5.2,3-7.7C31.9,4.9,26.6,0.1,20,0.1z M20,39.9c1.4,0,2.5-0.8,2.5-1.8h-5.1
				C17.5,39.1,18.6,39.9,20,39.9z"/>
		</g>
	</g>
</g>
<g id="hide" display="none">
	<g display="inline">
		<g>
			<path fill-rule="evenodd" clip-rule="evenodd" fill="#656970" d="M15,36.6c0,0.6,0.5,1,1,1h8c0.6,0,1-0.5,1-1v-5.5H15V36.6z
				 M20,0.1c-6.6,0-11.9,4.8-11.9,11.5c0,2.5,2.1,5.7,2.9,7.6c1.1,2.6,2.9,6.9,3.1,8.3c0.4,2.6,1.9,2.9,2.6,2.9c1.6,0,4.8,0,6.6,0
				c0.5,0,2.2-0.3,2.6-2.9c0.2-1.4,1.9-5.8,3.1-8.3c1-2,3-5.2,3-7.7C31.9,4.9,26.6,0.1,20,0.1z M27.6,18.8c-1,2.2-2.8,6.3-3,7.5
				c-0.3,2.3-1,2.6-1.5,2.6c-1.5,0-4.7,0-6.1,0c-0.6,0-1.4-0.3-1.6-2.6c-0.2-1.3-2.1-5.2-3-7.5C11.6,17,9.6,13.5,9.6,12
				C9.6,5.8,14.3,1.7,20,1.7s10.4,4,10.4,10.2C30.4,13.5,28.4,17,27.6,18.8z M20,39.9c1.4,0,2.5-0.8,2.5-1.8c-1,0-4.2,0-5.1,0
				C17.5,39.1,18.6,39.9,20,39.9z"/>
		</g>
	</g>
</g>
<g id="play" display="none">
	<g display="inline">
		<g>
			<path fill-rule="evenodd" clip-rule="evenodd" fill="#656970" d="M20,0C9,0,0,9,0,20c0,11,9,20,20,20s20-9,20-20C40,9,31,0,20,0z
				 M29,20.9l-13.5,8.3c-0.4,0.4-2.1,0-2.1-0.9V11.7c0-1,1.7-1.3,2.1-0.9L29,19.1C29.4,19.6,29.4,20.4,29,20.9z"/>
		</g>
	</g>
</g>
<g id="playActive" display="none">
	<g display="inline">
		<g>
			<path fill-rule="evenodd" clip-rule="evenodd" fill="#FFFFFF" d="M20,0C9,0,0,9,0,20c0,11,9,20,20,20s20-9,20-20C40,9,31,0,20,0z
				 M29,20.9l-13.5,8.3c-0.4,0.4-2.1,0-2.1-0.9V11.7c0-1,1.7-1.3,2.1-0.9L29,19.1C29.4,19.6,29.4,20.4,29,20.9z"/>
		</g>
	</g>
</g>
<g id="stop" display="none">
	<g display="inline">
		<g>
			<path fill-rule="evenodd" clip-rule="evenodd" fill="#656970" d="M32,0H8C3.6,0,0,3.6,0,8v24c0,4.4,3.6,8,8,8h24c4.4,0,8-3.6,8-8
				V8C40,3.6,36.4,0,32,0z M29.3,25.3c0,2.2-1.8,4-4,4H14.7c-2.2,0-4-1.8-4-4V14.7c0-2.2,1.8-4,4-4h10.7c2.2,0,4,1.8,4,4V25.3z"/>
		</g>
	</g>
</g>
<g id="stopActive" display="none">
	<g display="inline">
		<g>
			<path fill-rule="evenodd" clip-rule="evenodd" fill="#FFFFFF" d="M32,0H8C3.6,0,0,3.6,0,8v24c0,4.4,3.6,8,8,8h24c4.4,0,8-3.6,8-8
				V8C40,3.6,36.4,0,32,0z M29.3,25.3c0,2.2-1.8,4-4,4H14.7c-2.2,0-4-1.8-4-4V14.7c0-2.2,1.8-4,4-4h10.7c2.2,0,4,1.8,4,4V25.3z"/>
		</g>
	</g>
</g>
<g id="note" display="none">
	<g display="inline">
		<g>
			<path fill-rule="evenodd" clip-rule="evenodd" fill="#5D5E5E" d="M12.9,0L4.3,8.6V40h31.4V0H12.9z M18.6,14.3H7.1L18.6,2.9V14.3z
				"/>
		</g>
	</g>
</g>
<g id="noteActive">
	<g>
		<g>
			<path fill-rule="evenodd" clip-rule="evenodd" fill="#FFFFFF" d="M12.9,0L4.3,8.6V40h31.4V0H12.9z M18.6,14.3H7.1L18.6,2.9V14.3z
				"/>
		</g>
	</g>
</g>
</svg>
