<?xml version="1.0" encoding="utf-8"?>
<!-- Generator: Adobe Illustrator 18.0.0, SVG Export Plug-In . SVG Version: 6.00 Build 0)  -->
<!DOCTYPE svg PUBLIC "-//W3C//DTD SVG 1.1 Tiny//EN" "http://www.w3.org/Graphics/SVG/1.1/DTD/svg11-tiny.dtd">
<svg version="1.1" baseProfile="tiny" id="Layer_1" xmlns="http://www.w3.org/2000/svg" xmlns:xlink="http://www.w3.org/1999/xlink"
	 x="0px" y="0px" viewBox="0 0 1728 1728" xml:space="preserve">
<g id="bkg" display="none">
	<rect y="4.3" display="inline" width="1728" height="1723.7"/>
</g>
<g id="draw" display="none">
	<g display="inline">
		<g>
			<path fill="#656970" d="M0,1304.6V1728h423.4L1460.2,691.2l-423.4-427.7L0,1304.6z M108,1620v-267.8L371.5,1620H108z
				 M1594.1,129.6C1442.9-21.6,1300.3,0,1300.3,0l-129.6,133.9l423.4,423.4L1728,423.4C1728,423.4,1745.3,280.8,1594.1,129.6z"/>
		</g>
	</g>
</g>
<g id="drawActive" display="none">
	<g display="inline">
		<g>
			<path fill="#FFFFFF" d="M0,1304.6V1728h423.4L1460.2,691.2l-423.4-427.7L0,1304.6z M108,1620v-267.8L371.5,1620H108z
				 M1594.1,129.6C1442.9-21.6,1300.3,0,1300.3,0l-129.6,133.9l423.4,423.4L1728,423.4C1728,423.4,1745.3,280.8,1594.1,129.6z"/>
		</g>
	</g>
</g>
<g id="erase" display="none">
	<g display="inline">
		<g>
			<path fill="#656970" d="M1624.3,596.2L1080,30.2c-38.9-38.9-99.4-38.9-133.9,0l-920.2,959c-38.9,38.9-38.9,103.7,0,142.6
				l544.3,565.9c38.9,38.9,99.4,38.9,133.9,0l915.8-959C1663.2,699.8,1663.2,635,1624.3,596.2z M743,1589.8L129.6,950.4l69.1-69.1
				l613.4,639.4L743,1589.8z M1291.7,1633c-38.9,0-38.9-77.8-99.4-47.5c-56.2,30.2-60.5,142.6-60.5,142.6h224.6
				C1360.8,1728,1343.5,1633,1291.7,1633z M1697.8,1684.8c-38.9-13-64.8-51.8-108-34.6c-38.9,13-34.6,77.8-34.6,77.8H1728
				C1728,1728,1728,1697.8,1697.8,1684.8z M928.8,1693.4c17.3-4.3-21.6,34.6-21.6,34.6h90.7c0,0,4.3-34.6-13-47.5
				C972,1667.5,911.5,1693.4,928.8,1693.4z"/>
		</g>
	</g>
</g>
<g id="eraseActive" display="none">
	<g display="inline">
		<g>
			<path fill="#FFFFFF" d="M1624.3,596.2L1080,30.2c-38.9-38.9-99.4-38.9-133.9,0l-920.2,959c-38.9,38.9-38.9,103.7,0,142.6
				l544.3,565.9c38.9,38.9,99.4,38.9,133.9,0l915.8-959C1663.2,699.8,1663.2,635,1624.3,596.2z M743,1589.8L129.6,950.4l69.1-69.1
				l613.4,639.4L743,1589.8z M1697.8,1684.8c-38.9-13-64.8-51.8-108-34.6c-38.9,13-34.6,77.8-34.6,77.8H1728
				C1728,1728,1728,1697.8,1697.8,1684.8z M1291.7,1633c-38.9,0-38.9-77.8-99.4-47.5c-56.2,30.2-60.5,142.6-60.5,142.6h224.6
				C1360.8,1728,1343.5,1633,1291.7,1633z M928.8,1693.4c17.3-4.3-21.6,34.6-21.6,34.6h90.7c0,0,4.3-34.6-13-47.5
				C972,1667.5,911.5,1693.4,928.8,1693.4z"/>
		</g>
	</g>
</g>
<g id="clear" display="none">
	<path display="inline" fill="#656970" d="M864,1728C388.8,1728,0,1339.2,0,864S388.8,0,864,0s864,388.8,864,864
		S1339.2,1728,864,1728z M1339.2,561.6l-185.8-185.8L859.7,669.6L561.6,375.8L375.8,561.6l298.1,298.1l-293.8,293.8l181.4,185.8
		l293.8-293.8l298.1,298.1l185.8-185.8l-298.1-298.1L1339.2,561.6z"/>
</g>
<g id="clearActive" display="none">
	<path display="inline" fill="#FFFFFF" d="M864,1728C388.8,1728,0,1339.2,0,864S388.8,0,864,0s864,388.8,864,864
		S1339.2,1728,864,1728z M1339.2,561.6l-185.8-185.8L859.7,669.6L561.6,375.8L375.8,561.6l298.1,298.1l-293.8,293.8l181.4,185.8
		l293.8-293.8l298.1,298.1l185.8-185.8l-298.1-298.1L1339.2,561.6z"/>
</g>
<g id="square" display="none">
	<rect display="inline" fill="#656970" width="1728" height="1728"/>
</g>
<g id="squareActive" display="none">
	<rect display="inline" fill="#FFFFFF" width="1728" height="1728"/>
</g>
<g id="circle" display="none">
	<path display="inline" fill="#656970" d="M864,1728C388.8,1728,0,1339.2,0,864S388.8,0,864,0s864,388.8,864,864
		S1339.2,1728,864,1728z"/>
</g>
<g id="circleActive" display="none">
	<path display="inline" fill="#FFFFFF" d="M864,1728C388.8,1728,0,1339.2,0,864S388.8,0,864,0s864,388.8,864,864
		S1339.2,1728,864,1728z"/>
</g>
<g id="show" display="none">
	<g display="inline">
		<g>
			<path fill="#FFFFFF" d="M648,1581.1c0,25.9,21.6,43.2,43.2,43.2h345.6c25.9,0,43.2-21.6,43.2-43.2v-237.6H648V1581.1z M864,4.3
				c-285.1,0-514.1,207.4-514.1,496.8c0,108,90.7,246.2,125.3,328.3c47.5,112.3,125.3,298.1,133.9,358.6
				c17.3,112.3,82.1,125.3,112.3,125.3h285.1c21.6,0,95-13,112.3-125.3c8.6-60.5,82.1-250.6,133.9-358.6
				c43.2-86.4,129.6-224.6,129.6-332.6C1378.1,211.7,1149.1,4.3,864,4.3z M864,1723.7c60.5,0,108-34.6,108-77.8H751.7
				C756,1689.1,803.5,1723.7,864,1723.7z"/>
		</g>
	</g>
</g>
<g id="hide" display="none">
	<g display="inline">
		<g>
			<path fill="#656970" d="M648,1581.1c0,25.9,21.6,43.2,43.2,43.2h345.6c25.9,0,43.2-21.6,43.2-43.2v-237.6H648V1581.1z M864,4.3
				c-285.1,0-514.1,207.4-514.1,496.8c0,108,90.7,246.2,125.3,328.3c47.5,112.3,125.3,298.1,133.9,358.6
				c17.3,112.3,82.1,125.3,112.3,125.3c69.1,0,207.4,0,285.1,0c21.6,0,95-13,112.3-125.3c8.6-60.5,82.1-250.6,133.9-358.6
				c43.2-86.4,129.6-224.6,129.6-332.6C1378.1,211.7,1149.1,4.3,864,4.3z M1192.3,812.2c-43.2,95-121,272.2-129.6,324
				c-13,99.4-43.2,112.3-64.8,112.3c-64.8,0-203,0-263.5,0c-25.9,0-60.5-13-69.1-112.3c-8.6-56.2-90.7-224.6-129.6-324
				c-34.6-77.8-121-229-121-293.8c0-267.8,203-445,449.3-445s449.3,172.8,449.3,440.6C1313.3,583.2,1226.9,734.4,1192.3,812.2z
				 M864,1723.7c60.5,0,108-34.6,108-77.8c-43.2,0-181.4,0-220.3,0C756,1689.1,803.5,1723.7,864,1723.7z"/>
		</g>
	</g>
</g>
<g id="play" display="none">
	<g display="inline">
		<g>
			<path fill="#656970" d="M864,0C388.8,0,0,388.8,0,864s388.8,864,864,864s864-388.8,864-864S1339.2,0,864,0z M1252.8,902.9
				l-583.2,358.6c-17.3,17.3-90.7,0-90.7-38.9V505.4c0-43.2,73.4-56.2,90.7-38.9l583.2,358.6
				C1270.1,846.7,1270.1,881.3,1252.8,902.9z"/>
		</g>
	</g>
</g>
<g id="playActive" display="none">
	<g display="inline">
		<path fill="none" d="M864,0C388.8,0,0,388.8,0,864s388.8,864,864,864s864-388.8,864-864S1339.2,0,864,0z M1252.8,902.9
			l-583.2,358.6c-17.3,17.3-90.7,0-90.7-38.9s0-673.9,0-717.1s73.4-56.2,90.7-38.9l583.2,358.6
			C1270.1,846.7,1270.1,881.3,1252.8,902.9z"/>
	</g>
</g>
<g id="stop" display="none">
	<g display="inline">
		<g>
			<path fill="#656970" d="M1382.4,0H345.6C155.5,0,0,155.5,0,345.6v1036.8C0,1572.5,155.5,1728,345.6,1728h1036.8
				c190.1,0,345.6-155.5,345.6-345.6V345.6C1728,155.5,1572.5,0,1382.4,0z M1265.8,1093c0,95-77.8,172.8-172.8,172.8H635
				c-95,0-172.8-77.8-172.8-172.8V635c0-95,77.8-172.8,172.8-172.8h462.2c95,0,172.8,77.8,172.8,172.8V1093H1265.8z"/>
		</g>
	</g>
</g>
<g id="stopActive" display="none">
	<g display="inline">
		<g>
			<path fill="#FFFFFF" d="M1382.4,0H345.6C155.5,0,0,155.5,0,345.6v1036.8C0,1572.5,155.5,1728,345.6,1728h1036.8
				c190.1,0,345.6-155.5,345.6-345.6V345.6C1728,155.5,1572.5,0,1382.4,0z M1265.8,1093c0,95-77.8,172.8-172.8,172.8H635
				c-95,0-172.8-77.8-172.8-172.8V635c0-95,77.8-172.8,172.8-172.8h462.2c95,0,172.8,77.8,172.8,172.8V1093H1265.8z"/>
		</g>
	</g>
</g>
<g id="note">
	<g>
		<g>
			<path fill="#4C4E54" d="M557.3,0L185.8,371.5V1728h1356.5V0H557.3z M803.5,617.8H306.7l496.8-492.5V617.8z"/>
		</g>
	</g>
</g>
<g id="noteActive" display="none">
	<g display="inline">
		<path fill="none" d="M557.3,0L185.8,371.5V1728h1356.5V0H557.3z M803.5,617.8H306.7l496.8-492.5V617.8z"/>
	</g>
</g>
</svg>
