<?xml version="1.0" encoding="utf-8"?>
<!-- Generator: Adobe Illustrator 18.0.0, SVG Export Plug-In . SVG Version: 6.00 Build 0)  -->
<!DOCTYPE svg PUBLIC "-//W3C//DTD SVG 1.1 Tiny//EN" "http://www.w3.org/Graphics/SVG/1.1/DTD/svg11-tiny.dtd">
<svg version="1.1" baseProfile="tiny" id="Layer_1" xmlns="http://www.w3.org/2000/svg" xmlns:xlink="http://www.w3.org/1999/xlink"
	 x="0px" y="0px" viewBox="0 0 200 40" xml:space="preserve">
<g>
	<path fill="#FFFFFF" d="M50.6,15.4c-0.1,0.2-0.1,0.8-0.2,1.7l-0.1-1c0-0.3-0.1-0.6-0.1-0.7l-1.5-6h-2.3l-1.5,6
		c-0.1,0.2-0.1,0.4-0.1,0.8l-0.1,1l-0.1-1c0-0.3-0.1-0.6-0.1-0.8l-1.6-6h-3L43,20h3.1l1.3-5.3l0.1-1.4l0.1,1.4L49,20h3.1l3.1-10.6
		h-3L50.6,15.4z M58.7,4.6h-0.1c-1.1,0-1.6,0.5-1.6,1.6c0,1.1,0.5,1.6,1.6,1.6h0.1c1.1,0,1.6-0.6,1.6-1.6
		C60.4,5.2,59.8,4.7,58.7,4.6z M57.2,20h2.9V9.2l-2.9,0.4V20z M69.2,9.4c-1.5,0-2.5,0.5-3.2,1.5V9.3l-2.9,0.4V20h2.9v-6.1
		c0-0.6,0.2-1,0.6-1.4c0.4-0.4,0.9-0.6,1.4-0.6c0.5,0,1,0.2,1.4,0.6c0.4,0.4,0.6,0.9,0.6,1.4V20H73v-7.1c0-1-0.4-1.8-1.1-2.5
		C71.1,9.7,70.3,9.4,69.2,9.4z M82.5,10.6c-0.7-0.8-1.7-1.2-3-1.2c-1.1,0-2,0.4-2.7,1.1c-0.7,0.7-1.1,1.7-1.1,2.8v2.8
		c0,1.1,0.4,2,1.1,2.8c0.7,0.7,1.6,1.1,2.7,1.1c1.3,0,2.3-0.4,3-1.2v1.4c0,1.2-0.6,1.8-1.8,1.8c-1.1,0-2.3-0.4-3.3-1.2L77,23.3
		c1,0.6,2.2,0.9,3.5,0.9c0.2,0,0.4,0,0.6,0c2.9-0.2,4.4-1.8,4.4-5V9.4h-2.9L82.5,10.6z M82.5,15.9c-0.1,1.3-0.8,1.9-1.9,1.9
		c-1.3,0-1.9-0.7-1.9-2.1v-2.1c0-1.4,0.6-2.1,1.9-2.1c1.2,0,1.8,0.6,1.9,1.9V15.9z M94.3,9.3c-1.3,0-2.3,0.4-3,1.2V5.2l-2.9,0.5V20
		h2.8l0.1-1.2c0.7,0.8,1.7,1.2,3,1.2c1.1,0,2-0.4,2.7-1.1c0.7-0.7,1.1-1.7,1.1-2.8v-2.8c0-1.1-0.4-2-1.1-2.8
		C96.3,9.7,95.4,9.3,94.3,9.3z M95.2,15.7c0,1.4-0.6,2.1-1.9,2.1c-1.3,0-1.9-0.7-1.9-2.1v-2.1c0-0.6,0.2-1.1,0.6-1.5
		c0.4-0.4,0.8-0.6,1.4-0.6c1.3,0,1.9,0.7,1.9,2.1V15.7z M102.6,4.6h-0.1c-1.1,0-1.6,0.5-1.6,1.6c0,1.1,0.5,1.6,1.6,1.6h0.1
		c1.1,0,1.6-0.6,1.6-1.6C104.2,5.2,103.7,4.7,102.6,4.6z M101.1,20h2.9V9.2l-2.9,0.4V20z M115.7,10.4c-0.7-0.7-1.6-1-2.6-1
		c-1.5,0-2.5,0.5-3.2,1.5V9.3L107,9.7V20h2.9v-6.1c0-0.6,0.2-1,0.6-1.4c0.4-0.4,0.9-0.6,1.4-0.6c0.5,0,1,0.2,1.4,0.6
		c0.4,0.4,0.6,0.9,0.6,1.4V20h2.9v-7.1C116.8,11.9,116.4,11.1,115.7,10.4z M11.5,5.9L9.1,4.4l0,2.8c0,0.1,0,0.9,0.3,2.2l-2-1.2
		L4.9,6.7l0.1,2.9c0,0.1,0,0.8,0.2,2l-1.9-1.2L0.6,8.9l0.2,3c0,0.1,0.2,3.2,0.9,5.5c0.1,0.4,0.3,0.9,0.5,1.3l-1.4-0.8l-0.1,2.7
		c0,0.2-0.1,5.8,5,9c2.7,1.6,11.1,6.7,11.2,6.7l0.9,0.5l0.9-0.6l8.6-5.8l0.7-0.5V29V16.5v-0.9l-0.8-0.5L11.5,5.9z M17.6,20.9
		l-2.9-1.7v0.7l2.6,1.5v13.2c-1.8-1.1-8.4-5-10.7-6.4c-4.5-2.7-4.3-7.6-4.3-7.6l6.8,4.1c0,0-4.8-4.3-5.9-7.7
		c-0.6-2.1-0.8-5.1-0.8-5.1l6.7,4c0,0-1.8-1.9-2.2-3.7c-0.3-1.7-0.4-2.6-0.4-2.6l6.5,3.9c0,0-1.4-1.7-1.9-3.7
		c-0.4-1.6-0.4-2.6-0.4-2.6l15.2,9L17.6,20.9z M18.3,34.5v-9.8l7.8,4.5L18.3,34.5z M26.4,28.7L18.3,24v-2.4l8.1-4.6V28.7z
		 M26.4,16.5L26.4,16.5L26.4,16.5L26.4,16.5z M15.3,12.3l-0.6,0.3l5.7,3.4l0.6-0.3L15.3,12.3z M9.1,26.9l5.6,3.4v-0.7l-5.6-3.4V26.9
		z M10.7,18.9l-5.8-3.4v0.7l5.8,3.4V18.9z"/>
</g>
<g>
	<path fill="#FFFFFF" d="M43.2,32.3L43.2,32.3c0.7-0.2,1-0.8,1-1.6c0-1.3-0.9-1.7-1.9-1.7H40v7.1h2.3c1.3,0,2.2-0.8,2.2-1.9
		C44.4,32.9,43.9,32.4,43.2,32.3z M41.1,29.8h0.8c0.6,0,1.1,0.2,1.1,1c0,0.7-0.4,1.1-1,1.1h-0.9V29.8z M42.2,35.2h-1.1v-2.5h1.1
		c0.7,0,1.1,0.4,1.1,1.2C43.3,34.8,42.9,35.2,42.2,35.2z M49.6,35.4c0-0.4,0-1,0-1.4c0-1-0.4-1.4-1.1-1.5v0c0.8-0.1,1.2-0.8,1.2-1.7
		c0-1.3-0.8-1.8-1.8-1.8h-2.5v7.1h1.1V33h0.9c0.8,0,1,0.3,1,1.1c0,0.5,0,0.9,0,1.3c0,0.3,0.1,0.5,0.2,0.6H50
		C49.8,36,49.7,35.8,49.6,35.4z M47.4,32.1h-0.9v-2.3h1c0.7,0,1.1,0.4,1.1,1.2C48.5,31.7,48.1,32.1,47.4,32.1z M52.9,28.8
		c-1.6,0-2.4,1.2-2.4,3.7s0.7,3.7,2.4,3.7s2.4-1.2,2.4-3.7S54.5,28.8,52.9,28.8z M52.9,35.3c-0.7,0-1.2-0.4-1.2-2.9
		c0-2.4,0.5-2.8,1.2-2.8s1.2,0.4,1.2,2.8C54.1,34.9,53.6,35.3,52.9,35.3z M61,34.5L61,34.5l-1-5.6h-1.2l-0.9,5.5h0l-0.9-5.5h-1.1
		l1.4,7.1h1.3l0.9-5.4h0l0.9,5.4h1.3l1.4-7.1h-1.1L61,34.5z M66.5,32.2l-0.8-0.3c-0.8-0.3-1.1-0.6-1.1-1.2c0-0.8,0.5-1,1-1
		c0.7,0,1,0.4,1,1v0.1h1.1v-0.2c0-0.7-0.2-1.9-2-1.9c-1.3,0-2.2,0.7-2.2,2c0,1,0.4,1.6,1.5,2l0.8,0.3c0.6,0.2,1,0.5,1,1.3
		c0,0.5-0.4,1-1.1,1c-0.8,0-1.2-0.4-1.2-1.3v-0.2h-1.1V34c0,1,0.4,2.2,2.2,2.2c1.4,0,2.4-0.6,2.4-2.1C68,33.1,67.5,32.5,66.5,32.2z
		 M70,32.8h2.6v-1H70v-2h2.7v-1h-3.9v7.1h3.9v-1H70V32.8z M78,35.4c0-0.4,0-1,0-1.4c0-1-0.4-1.4-1.1-1.5v0c0.8-0.1,1.2-0.8,1.2-1.7
		c0-1.3-0.8-1.8-1.8-1.8h-2.5v7.1h1.1V33h0.9c0.8,0,1,0.3,1,1.1c0,0.5,0,0.9,0,1.3c0,0.3,0.1,0.5,0.2,0.6h1.3
		C78.2,36,78,35.8,78,35.4z M75.7,32.1h-0.9v-2.3h1c0.7,0,1.1,0.4,1.1,1.2C76.9,31.7,76.5,32.1,75.7,32.1z M84.6,32.3L84.6,32.3
		c0.7-0.2,1-0.8,1-1.6c0-1.3-0.9-1.7-1.9-1.7h-2.3v7.1h2.3c1.3,0,2.2-0.8,2.2-1.9C85.9,32.9,85.4,32.4,84.6,32.3z M82.6,29.8h0.8
		c0.6,0,1.1,0.2,1.1,1c0,0.7-0.4,1.1-1,1.1h-0.9V29.8z M83.7,35.2h-1.1v-2.5h1.1c0.7,0,1.1,0.4,1.1,1.2
		C84.8,34.8,84.4,35.2,83.7,35.2z M88.2,28.9l-2,7.1h1.2l0.5-1.7h2.1l0.4,1.7h1.2l-1.9-7.1H88.2z M88,33.4l0.8-3.5h0l0.8,3.5H88z
		 M94.8,32.2l-0.8-0.3c-0.8-0.3-1.1-0.6-1.1-1.2c0-0.8,0.5-1,1-1c0.7,0,1,0.4,1,1v0.1h1.1v-0.2c0-0.7-0.2-1.9-2-1.9
		c-1.3,0-2.2,0.7-2.2,2c0,1,0.4,1.6,1.5,2l0.8,0.3c0.6,0.2,1,0.5,1,1.3c0,0.5-0.4,1-1.1,1c-0.8,0-1.2-0.4-1.2-1.3v-0.2h-1.1V34
		c0,1,0.4,2.2,2.2,2.2c1.4,0,2.4-0.6,2.4-2.1C96.3,33.1,95.8,32.5,94.8,32.2z M98.3,32.8h2.6v-1h-2.6v-2h2.7v-1h-3.9v7.1h3.9v-1
		h-2.8V32.8z M104,28.9h-2v7.1h2c2.2,0,2.5-1.5,2.5-3.6C106.6,30.4,106.3,28.9,104,28.9z M104.1,35.2h-0.9v-5.4h0.9
		c1,0,1.3,0.7,1.3,2.7C105.4,34.6,105,35.2,104.1,35.2z M114.3,35.4c0-0.4,0-1,0-1.4c0-1-0.4-1.4-1.1-1.5v0c0.8-0.1,1.2-0.8,1.2-1.7
		c0-1.3-0.8-1.8-1.8-1.8H110v7.1h1.1V33h0.9c0.8,0,1,0.3,1,1.1c0,0.5,0,0.9,0,1.3c0,0.3,0.1,0.5,0.2,0.6h1.3
		C114.5,36,114.3,35.8,114.3,35.4z M112,32.1h-0.9v-2.3h1c0.7,0,1.1,0.4,1.1,1.2C113.2,31.7,112.8,32.1,112,32.1z M116.7,28.9
		l-2,7.1h1.2l0.5-1.7h2.1l0.4,1.7h1.2l-1.9-7.1H116.7z M116.5,33.4l0.8-3.5h0l0.8,3.5H116.5z M123.6,34.2L123.6,34.2l-1.3-5.3h-1.8
		v7.1h1.1v-5.9h0l1.4,5.9h1l1.4-5.9h0v5.9h1.1v-7.1h-1.7L123.6,34.2z M132.4,28.9h-2.3v7.1h1.1v-2.9h1c1.3,0,2.1-0.8,2.1-2.1
		C134.4,29.8,133.8,28.9,132.4,28.9z M132.1,32.3h-0.8v-2.5h0.7c0.9,0,1.2,0.5,1.2,1.2C133.2,31.9,132.7,32.3,132.1,32.3z
		 M140.9,28.9l-2,7.1v-0.9h-2.8v-6.2H135v7.1h5.1l0.5-1.7h2.1l0.4,1.7h1.2l-1.9-7.1H140.9z M140.8,33.4l0.8-3.5h0l0.8,3.5H140.8z
		 M146.1,32l-1.2-3.1h-1.3l1.8,4.3v2.8h1.1v-2.8l1.9-4.3h-1.2L146.1,32z M150.2,32.8h2.6v-1h-2.6v-2h2.7v-1H149v7.1h3.9v-1h-2.8
		V32.8z M158.2,35.4c0-0.4,0-1,0-1.4c0-1-0.4-1.4-1.1-1.5v0c0.8-0.1,1.2-0.8,1.2-1.7c0-1.3-0.8-1.8-1.8-1.8h-2.5v7.1h1.1V33h0.9
		c0.8,0,1,0.3,1,1.1c0,0.5,0,0.9,0,1.3c0,0.3,0.1,0.5,0.2,0.6h1.3C158.3,36,158.2,35.8,158.2,35.4z M155.9,32.1H155v-2.3h1
		c0.7,0,1.1,0.4,1.1,1.2C157,31.7,156.6,32.1,155.9,32.1z"/>
</g>
</svg>
