<?xml version="1.0" encoding="utf-8"?>
<!-- Generator: Adobe Illustrator 18.0.0, SVG Export Plug-In . SVG Version: 6.00 Build 0)  -->
<!DOCTYPE svg PUBLIC "-//W3C//DTD SVG 1.1//EN" "http://www.w3.org/Graphics/SVG/1.1/DTD/svg11.dtd">
<svg version="1.1" xmlns="http://www.w3.org/2000/svg" xmlns:xlink="http://www.w3.org/1999/xlink" x="0px" y="0px"
	 viewBox="0 0 40 40" enable-background="new 0 0 40 40" xml:space="preserve">
<g id="bkg" display="none">
	<rect x="0" y="0.1" display="inline" fill-rule="evenodd" clip-rule="evenodd" width="40" height="39.9"/>
</g>
<g id="draw" display="none">
	<g display="inline">
		<g>
			<path fill="#656970" d="M0,30.2l0,9.8L9.8,40l24-24L24,6.1L0,30.2z M2.5,37.5l0-6.2l6.1,6.2L2.5,37.5z M36.9,3
				c-3.5-3.5-6.8-3-6.8-3l-3,3.1l9.8,9.8L40,9.8C40,9.8,40.4,6.5,36.9,3z"/>
		</g>
	</g>
</g>
<g id="drawActive" display="none">
	<g display="inline">
		<g>
			<path fill="#FFFFFF" d="M0,30.2l0,9.8L9.8,40l24-24L24,6.1L0,30.2z M2.5,37.5l0-6.2l6.1,6.2L2.5,37.5z M36.9,3
				c-3.5-3.5-6.8-3-6.8-3l-3,3.1l9.8,9.8L40,9.8C40,9.8,40.4,6.5,36.9,3z"/>
		</g>
	</g>
</g>
<g id="erase" display="none">
	<g display="inline">
		<g>
			<path fill-rule="evenodd" clip-rule="evenodd" fill="#656970" d="M37.6,13.8L25,0.7c-0.9-0.9-2.3-0.9-3.1,0L0.6,22.9
				c-0.9,0.9-0.9,2.4,0,3.3l12.6,13.1c0.9,0.9,2.3,0.9,3.1,0l21.2-22.2C38.5,16.2,38.5,14.7,37.6,13.8z M17.2,36.8L3,22l1.6-1.6
				l14.2,14.8L17.2,36.8z M29.9,37.8c-0.9,0-0.9-1.8-2.3-1.1c-1.3,0.7-1.4,3.3-1.4,3.3h5.2C31.5,40,31.1,37.8,29.9,37.8z M39.3,39
				c-0.9-0.3-1.5-1.2-2.5-0.8C35.9,38.5,36,40,36,40H40C40,40,40,39.3,39.3,39z M21.5,39.2c0.4-0.1-0.5,0.8-0.5,0.8h2.1
				c0,0,0.1-0.8-0.3-1.1C22.5,38.6,21.1,39.2,21.5,39.2z"/>
		</g>
	</g>
</g>
<g id="eraseActive" display="none">
	<g display="inline">
		<g>
			<path fill-rule="evenodd" clip-rule="evenodd" fill="#FFFFFF" d="M37.6,13.8L25,0.7c-0.9-0.9-2.3-0.9-3.1,0L0.6,22.9
				c-0.9,0.9-0.9,2.4,0,3.3l12.6,13.1c0.9,0.9,2.3,0.9,3.1,0l21.2-22.2C38.5,16.2,38.5,14.7,37.6,13.8z M17.2,36.8L3,22l1.6-1.6
				l14.2,14.8L17.2,36.8z M39.3,39c-0.9-0.3-1.5-1.2-2.5-0.8C35.9,38.5,36,40,36,40H40C40,40,40,39.3,39.3,39z M29.9,37.8
				c-0.9,0-0.9-1.8-2.3-1.1c-1.3,0.7-1.4,3.3-1.4,3.3h5.2C31.5,40,31.1,37.8,29.9,37.8z M21.5,39.2c0.4-0.1-0.5,0.8-0.5,0.8h2.1
				c0,0,0.1-0.8-0.3-1.1C22.5,38.6,21.1,39.2,21.5,39.2z"/>
		</g>
	</g>
</g>
<g id="clear" display="none">
	<path display="inline" fill-rule="evenodd" clip-rule="evenodd" fill="#656970" d="M20,40C9,40,0,31,0,20C0,9,9,0,20,0
		c11,0,20,9,20,20C40,31,31,40,20,40z M31,13l-4.3-4.3l-6.8,6.8L13,8.7L8.7,13l6.9,6.9l-6.8,6.8L13,31l6.8-6.8l6.9,6.9l4.3-4.3
		l-6.9-6.9L31,13z"/>
</g>
<g id="clearActive">
	<path fill-rule="evenodd" clip-rule="evenodd" fill="#FFFFFF" d="M20,40C9,40,0,31,0,20C0,9,9,0,20,0c11,0,20,9,20,20
		C40,31,31,40,20,40z M31,13l-4.3-4.3l-6.8,6.8L13,8.7L8.7,13l6.9,6.9l-6.8,6.8L13,31l6.8-6.8l6.9,6.9l4.3-4.3l-6.9-6.9L31,13z"/>
</g>
</svg>
